<mxfile host="Electron" modified="2023-11-20T23:35:35.982Z" agent="Mozilla/5.0 (Windows NT 10.0; Win64; x64) AppleWebKit/537.36 (KHTML, like Gecko) draw.io/22.1.2 Chrome/114.0.5735.289 Electron/25.9.4 Safari/537.36" etag="tC1MQ0g1eI0pJ-o1rwBe" version="22.1.2" type="device">
  <diagram name="Page-1" id="4L4-IE6cCJxAsZSczvcJ">
    <mxGraphModel dx="1036" dy="606" grid="1" gridSize="10" guides="1" tooltips="1" connect="1" arrows="1" fold="1" page="1" pageScale="1" pageWidth="850" pageHeight="1100" math="0" shadow="0">
      <root>
        <mxCell id="0" />
        <mxCell id="1" parent="0" />
        <mxCell id="WwLXmpdFNCxt3J-4EGDp-3" style="edgeStyle=orthogonalEdgeStyle;rounded=0;orthogonalLoop=1;jettySize=auto;html=1;entryX=0;entryY=0.5;entryDx=0;entryDy=0;entryPerimeter=0;" edge="1" parent="1" target="WwLXmpdFNCxt3J-4EGDp-5">
          <mxGeometry relative="1" as="geometry">
            <mxPoint x="220" y="270" as="targetPoint" />
            <mxPoint x="100" y="270" as="sourcePoint" />
          </mxGeometry>
        </mxCell>
        <mxCell id="WwLXmpdFNCxt3J-4EGDp-4" value="RESPONSE" style="edgeLabel;html=1;align=center;verticalAlign=middle;resizable=0;points=[];" vertex="1" connectable="0" parent="WwLXmpdFNCxt3J-4EGDp-3">
          <mxGeometry x="-0.0042" y="1" relative="1" as="geometry">
            <mxPoint y="-1" as="offset" />
          </mxGeometry>
        </mxCell>
        <mxCell id="WwLXmpdFNCxt3J-4EGDp-2" value="" style="shape=actor;whiteSpace=wrap;html=1;" vertex="1" parent="1">
          <mxGeometry x="60" y="230" width="40" height="60" as="geometry" />
        </mxCell>
        <mxCell id="WwLXmpdFNCxt3J-4EGDp-6" style="edgeStyle=orthogonalEdgeStyle;rounded=0;orthogonalLoop=1;jettySize=auto;html=1;exitX=0.145;exitY=1;exitDx=0;exitDy=-4.35;exitPerimeter=0;entryX=0.5;entryY=0;entryDx=0;entryDy=0;" edge="1" parent="1" source="WwLXmpdFNCxt3J-4EGDp-5">
          <mxGeometry relative="1" as="geometry">
            <mxPoint x="290" y="510" as="targetPoint" />
          </mxGeometry>
        </mxCell>
        <mxCell id="WwLXmpdFNCxt3J-4EGDp-7" style="edgeStyle=orthogonalEdgeStyle;rounded=0;orthogonalLoop=1;jettySize=auto;html=1;exitX=0.855;exitY=1;exitDx=0;exitDy=-4.35;exitPerimeter=0;entryX=0.5;entryY=0;entryDx=0;entryDy=0;" edge="1" parent="1" source="WwLXmpdFNCxt3J-4EGDp-5" target="WwLXmpdFNCxt3J-4EGDp-11">
          <mxGeometry relative="1" as="geometry">
            <mxPoint x="660" y="490" as="targetPoint" />
          </mxGeometry>
        </mxCell>
        <mxCell id="WwLXmpdFNCxt3J-4EGDp-5" value="DATABASE" style="shape=cylinder3;whiteSpace=wrap;html=1;boundedLbl=1;backgroundOutline=1;size=15;" vertex="1" parent="1">
          <mxGeometry x="425" y="220" width="85" height="90" as="geometry" />
        </mxCell>
        <mxCell id="WwLXmpdFNCxt3J-4EGDp-10" value="UPDATE SPREADSHEET" style="rounded=0;whiteSpace=wrap;html=1;" vertex="1" parent="1">
          <mxGeometry x="230" y="680" width="120" height="60" as="geometry" />
        </mxCell>
        <mxCell id="WwLXmpdFNCxt3J-4EGDp-13" style="edgeStyle=orthogonalEdgeStyle;rounded=0;orthogonalLoop=1;jettySize=auto;html=1;entryX=0.5;entryY=0;entryDx=0;entryDy=0;" edge="1" parent="1" source="WwLXmpdFNCxt3J-4EGDp-11" target="WwLXmpdFNCxt3J-4EGDp-12">
          <mxGeometry relative="1" as="geometry" />
        </mxCell>
        <mxCell id="WwLXmpdFNCxt3J-4EGDp-11" value="TWILIO API" style="shape=process;whiteSpace=wrap;html=1;backgroundOutline=1;" vertex="1" parent="1">
          <mxGeometry x="600" y="510" width="120" height="50" as="geometry" />
        </mxCell>
        <mxCell id="WwLXmpdFNCxt3J-4EGDp-12" value="SEND SMS TO CLIENT" style="rounded=0;whiteSpace=wrap;html=1;" vertex="1" parent="1">
          <mxGeometry x="600" y="680" width="120" height="60" as="geometry" />
        </mxCell>
        <mxCell id="WwLXmpdFNCxt3J-4EGDp-15" style="edgeStyle=orthogonalEdgeStyle;rounded=0;orthogonalLoop=1;jettySize=auto;html=1;entryX=0.5;entryY=0;entryDx=0;entryDy=0;" edge="1" parent="1" source="WwLXmpdFNCxt3J-4EGDp-14" target="WwLXmpdFNCxt3J-4EGDp-10">
          <mxGeometry relative="1" as="geometry" />
        </mxCell>
        <mxCell id="WwLXmpdFNCxt3J-4EGDp-14" value="GOOGLE SHEETS API" style="shape=process;whiteSpace=wrap;html=1;backgroundOutline=1;" vertex="1" parent="1">
          <mxGeometry x="230" y="510" width="120" height="60" as="geometry" />
        </mxCell>
        <mxCell id="WwLXmpdFNCxt3J-4EGDp-18" value="USER&lt;br&gt;" style="text;html=1;align=center;verticalAlign=middle;resizable=0;points=[];autosize=1;strokeColor=none;fillColor=none;" vertex="1" parent="1">
          <mxGeometry x="50" y="288" width="60" height="30" as="geometry" />
        </mxCell>
      </root>
    </mxGraphModel>
  </diagram>
</mxfile>
